<svg xmlns="http://www.w3.org/2000/svg" version="1.1" xmlns:xlink="http://www.w3.org/1999/xlink" width="512" height="512" x="0" y="0" viewBox="0 0 48 48" style="enable-background:new 0 0 512 512" xml:space="preserve" class=""><g><path d="M13.5 44.75a8.25 8.25 0 0 1 0-16.5H40a2.75 2.75 0 0 1 0 5.5H13.5a2.75 2.75 0 0 0 0 5.5H40a2.75 2.75 0 0 1 0 5.5Z" fill="#ffffff" opacity="1" data-original="#000000" class=""></path><path d="M39 41a1 1 0 0 1-1-1v-7a1 1 0 0 1 2 0v7a1 1 0 0 1-1 1ZM29.22 22.25l-.62 2.48A2.995 2.995 0 0 1 25.69 27h-3.38a2.995 2.995 0 0 1-2.91-2.27l-.62-2.48Z" fill="#ffffff" opacity="1" data-original="#000000" class=""></path><circle cx="24" cy="13" r="1.25" fill="#ffffff" opacity="1" data-original="#000000" class=""></circle><path d="M24 3a9.31 9.31 0 0 0-5.16 17.06v.69h4.41v-5.12a2.75 2.75 0 1 1 1.5 0v5.12h4.41v-.69A9.31 9.31 0 0 0 24 3ZM40 14.338h-2.928a1 1 0 0 1 0-2H40a1 1 0 0 1 0 2ZM36 10.232a1 1 0 0 1-.707-1.707l2.07-2.07a1 1 0 1 1 1.414 1.414l-2.07 2.07a.997.997 0 0 1-.707.293ZM38.07 20.514a.997.997 0 0 1-.707-.293l-2.07-2.07a1 1 0 1 1 1.414-1.415l2.07 2.07a1 1 0 0 1-.707 1.708ZM10.928 14.338H8a1 1 0 0 1 0-2h2.928a1 1 0 0 1 0 2ZM12 10.232a.997.997 0 0 1-.707-.293l-2.07-2.07a1 1 0 0 1 1.414-1.414l2.07 2.07A1 1 0 0 1 12 10.232ZM9.93 20.514a1 1 0 0 1-.707-1.707l2.07-2.07a1 1 0 1 1 1.414 1.413l-2.07 2.07a.997.997 0 0 1-.707.294ZM32.276 38.638l-2.052-1.026a.5.5 0 0 0-.448 0l-2.052 1.026a.5.5 0 0 1-.724-.447V32h6v6.191a.5.5 0 0 1-.724.447Z" fill="#ffffff" opacity="1" data-original="#000000" class=""></path></g></svg>