<svg xmlns="http://www.w3.org/2000/svg" version="1.1" xmlns:xlink="http://www.w3.org/1999/xlink" width="512" height="512" x="0" y="0" viewBox="0 0 64 64" style="enable-background:new 0 0 512 512" xml:space="preserve"><g><path d="M32 10a14 14 0 1 0 14 14 14.016 14.016 0 0 0-14-14Zm10.414 10.566a1 1 0 0 1-.253 1.025l-4.355 4.245 1.028 5.995a1 1 0 0 1-1.451 1.054L32 30.055l-5.383 2.83a1 1 0 0 1-1.451-1.054l1.028-5.995-4.355-4.245a1 1 0 0 1 .555-1.705l6.018-.875 2.692-5.453a1.04 1.04 0 0 1 1.793 0l2.69 5.453 6.02.875a1 1 0 0 1 .807.68ZM45.105 43.955a5.783 5.783 0 0 1-1.1.831 7.196 7.196 0 0 1-3.644.838c-.357 0-.71-.014-1.05-.028-.294-.012-.572-.024-.837-.024a2.895 2.895 0 0 0-.683.055 7.087 7.087 0 0 0-1.235.693 11.3 11.3 0 0 1-2.845 1.416l4.953 13.606a.999.999 0 0 0 .84.653c.034.003.067.005.1.005a1 1 0 0 0 .854-.48l2.914-4.786 5.308 1.793a1 1 0 0 0 1.26-1.289ZM26.203 45.626a2.892 2.892 0 0 0-.679-.054c-.266 0-.545.012-.829.024-.35.013-.702.027-1.056.027a7.19 7.19 0 0 1-3.642-.836 5.817 5.817 0 0 1-1.102-.832L14.06 57.238a1 1 0 0 0 1.26 1.29l5.308-1.794 2.914 4.786a1 1 0 0 0 .855.48c.032 0 .065-.002.098-.004a.999.999 0 0 0 .841-.654l4.953-13.605a11.287 11.287 0 0 1-2.841-1.414 6.953 6.953 0 0 0-1.245-.697Z" fill="#ffffff" opacity="1" data-original="#000000"></path><path d="M52.635 20.52a7.24 7.24 0 0 1-.94-1.797 7.519 7.519 0 0 1-.097-2.115 6.552 6.552 0 0 0-.543-3.61 6.59 6.59 0 0 0-2.885-2.294 7.36 7.36 0 0 1-1.756-1.118 7.391 7.391 0 0 1-1.118-1.756 6.592 6.592 0 0 0-2.293-2.886 6.56 6.56 0 0 0-3.61-.542 7.523 7.523 0 0 1-2.115-.096 7.228 7.228 0 0 1-1.798-.94A6.637 6.637 0 0 0 32 2a6.637 6.637 0 0 0-3.48 1.365 7.24 7.24 0 0 1-1.798.94 7.596 7.596 0 0 1-2.114.097 6.558 6.558 0 0 0-3.611.543 6.59 6.59 0 0 0-2.293 2.885 7.36 7.36 0 0 1-1.118 1.756 7.391 7.391 0 0 1-1.756 1.118 6.592 6.592 0 0 0-2.886 2.293 6.562 6.562 0 0 0-.542 3.61 7.521 7.521 0 0 1-.096 2.115 7.228 7.228 0 0 1-.94 1.799A6.637 6.637 0 0 0 10 24a6.637 6.637 0 0 0 1.365 3.48 7.24 7.24 0 0 1 .94 1.798 7.519 7.519 0 0 1 .097 2.114 6.552 6.552 0 0 0 .543 3.611 6.59 6.59 0 0 0 2.885 2.293 7.36 7.36 0 0 1 1.756 1.119 7.391 7.391 0 0 1 1.118 1.755 6.592 6.592 0 0 0 2.293 2.886 6.56 6.56 0 0 0 3.61.542 7.563 7.563 0 0 1 2.115.096 7.228 7.228 0 0 1 1.799.94A6.637 6.637 0 0 0 32 46a6.637 6.637 0 0 0 3.48-1.365 7.24 7.24 0 0 1 1.798-.94 7.554 7.554 0 0 1 2.114-.097 6.549 6.549 0 0 0 3.611-.543 6.59 6.59 0 0 0 2.293-2.885 7.36 7.36 0 0 1 1.119-1.756 7.391 7.391 0 0 1 1.755-1.118 6.592 6.592 0 0 0 2.886-2.293 6.562 6.562 0 0 0 .542-3.61 7.521 7.521 0 0 1 .096-2.115 7.228 7.228 0 0 1 .94-1.798A6.637 6.637 0 0 0 54 24a6.637 6.637 0 0 0-1.365-3.48ZM32 40a16 16 0 1 1 16-16 16.018 16.018 0 0 1-16 16Z" fill="#ffffff" opacity="1" data-original="#000000"></path><path d="M34.027 20.367 32 16.26l-2.027 4.107a.999.999 0 0 1-.753.547l-4.534.66 3.28 3.198a1 1 0 0 1 .288.884l-.774 4.516 4.054-2.132a1 1 0 0 1 .932 0l4.055 2.132-.775-4.516a1 1 0 0 1 .287-.884l3.281-3.199-4.534-.659a.999.999 0 0 1-.753-.547Z" fill="#ffffff" opacity="1" data-original="#000000"></path></g></svg>