<svg xmlns="http://www.w3.org/2000/svg" version="1.1" xmlns:xlink="http://www.w3.org/1999/xlink" width="512" height="512" x="0" y="0" viewBox="0 0 48 48" style="enable-background:new 0 0 512 512" xml:space="preserve"><g><path d="M20 26h8a4 4 0 0 1-4 4 4 4 0 0 1-4-4ZM18.37 20.55v1.7H23v-5.836l-1.707-1.707a1 1 0 0 1 1.414-1.414L24 14.586l1.293-1.293a1 1 0 0 1 1.414 1.414L25 16.414v5.836h4.63v-1.7a9.662 9.662 0 1 0-11.26 0Z" fill="#ffffff" opacity="1" data-original="#000000"></path><path d="M24.66 23.75h-6.29V24a3 3 0 0 0 3 3h5.26a3 3 0 0 0 3-3v-.25ZM40 14h-2.928a1 1 0 0 1 0-2H40a1 1 0 0 1 0 2ZM36 10.011a1 1 0 0 1-.709-1.705l2-2.011a1 1 0 0 1 1.418 1.41l-2 2.011a.995.995 0 0 1-.709.295ZM38 20a.995.995 0 0 1-.709-.295l-2-2.011a1 1 0 0 1 1.418-1.41l2 2.01A1 1 0 0 1 38 20ZM10.928 14H8a1 1 0 0 1 0-2h2.928a1 1 0 0 1 0 2ZM12 10.011a.995.995 0 0 1-.709-.295l-2-2.01a1 1 0 1 1 1.418-1.411l2 2.011A1 1 0 0 1 12 10.011ZM10 20a1 1 0 0 1-.709-1.705l2-2.011a1 1 0 1 1 1.418 1.41l-2 2.011A.995.995 0 0 1 10 20ZM40.377 32.698a2.467 2.467 0 0 0-1.362-1.878 2.519 2.519 0 0 0-2.395.075l-8.312 6.18a2.882 2.882 0 0 1-1.422.375h-3.539a.95.95 0 1 1 0-1.9h2.597a1.687 1.687 0 0 0 1.683-1.662v-.03a1.685 1.685 0 0 0-1.683-1.676H15.12v11.321a1.965 1.965 0 0 1-.03.367h12.654a5.253 5.253 0 0 0 3.532-1.362l8.12-7.393a2.684 2.684 0 0 0 .98-2.417ZM8.496 30.034h4.007a1.497 1.497 0 0 1 1.496 1.497v11.972A1.497 1.497 0 0 1 12.503 45H8.496A1.497 1.497 0 0 1 7 43.503V31.531a1.497 1.497 0 0 1 1.497-1.497Z" fill="#ffffff" opacity="1" data-original="#000000"></path></g></svg>