<svg xmlns="http://www.w3.org/2000/svg" version="1.1" xmlns:xlink="http://www.w3.org/1999/xlink" width="512" height="512" x="0" y="0" viewBox="0 0 68 68" style="enable-background:new 0 0 512 512" xml:space="preserve" class=""><g><path d="M60.42 21.68v23.37c0 1.17-.95 2.12-2.12 2.12H43.99a4.3 4.3 0 0 1-4.3 4.01c-2.27 0-4.13-1.77-4.28-4.01H21.1c-1.17 0-2.12-.95-2.12-2.12V21.68c0-1.17.95-2.12 2.12-2.12h.83v21.07c0 2 1.63 3.63 3.63 3.63h10.58c1.35 0 2.59-.49 3.56-1.29.97.8 2.21 1.29 3.56 1.29h10.58c2 0 3.63-1.63 3.63-3.63V19.56h.83c1.17 0 2.12.95 2.12 2.12z" fill="#ffffff" opacity="1" data-original="#000000" class=""></path><path d="M53.84 15.65H43.26c-1.97 0-3.56 1.59-3.56 3.56 0-1.97-1.6-3.56-3.56-3.56H25.56c-.9 0-1.63.73-1.63 1.63v23.35c0 .9.73 1.63 1.63 1.63h10.58c1.96 0 3.56-1.6 3.56-3.56 0 1.96 1.59 3.56 3.56 3.56h10.58c.9 0 1.63-.73 1.63-1.63V17.28c0-.9-.73-1.63-1.63-1.63zm-18.6 21.82h-6.86c-.55 0-1-.45-1-1s.45-1 1-1h6.86c.56 0 1 .45 1 1s-.44 1-1 1zm0-5.01h-6.86c-.55 0-1-.45-1-1s.45-1 1-1h6.86c.56 0 1 .45 1 1s-.44 1-1 1zm0-5.01h-6.86c-.55 0-1-.45-1-1s.45-1 1-1h6.86c.56 0 1 .45 1 1s-.44 1-1 1zm0-5.01h-6.86c-.55 0-1-.45-1-1s.45-1 1-1h6.86c.56 0 1 .45 1 1s-.44 1-1 1zm15.77 15.03h-6.86c-.55 0-1-.45-1-1s.45-1 1-1h6.86c.56 0 1 .45 1 1s-.44 1-1 1zm0-5.01h-6.86c-.55 0-1-.45-1-1s.45-1 1-1h6.86c.56 0 1 .45 1 1s-.44 1-1 1zm0-5.01h-6.86c-.55 0-1-.45-1-1s.45-1 1-1h6.86c.56 0 1 .45 1 1s-.44 1-1 1zm0-5.01h-6.86c-.55 0-1-.45-1-1s.45-1 1-1h6.86c.56 0 1 .45 1 1s-.44 1-1 1z" fill="#ffffff" opacity="1" data-original="#000000" class=""></path><path d="M51.73 13.65V9.26c0-3.8-3.1-6.89-6.89-6.89H14.47c-3.8 0-6.89 3.09-6.89 6.89v49.48c0 3.8 3.09 6.89 6.89 6.89h30.37c3.79 0 6.89-3.09 6.89-6.89v-9.57h-5.1v6.78H12.67V11.12h33.96v2.53zM25.68 59.29h7.94c.56 0 1 .45 1 1s-.44 1-1 1h-7.94c-.55 0-1-.45-1-1s.45-1 1-1zm5.8-51.05h-3.66c-.55 0-1-.44-1-1 0-.55.45-1 1-1h3.66c.55 0 1 .45 1 1 0 .56-.45 1-1 1z" fill="#ffffff" opacity="1" data-original="#000000" class=""></path></g></svg>